<svg xmlns="http://www.w3.org/2000/svg" xmlns:xlink="http://www.w3.org/1999/xlink" width="640" height="480"><path fill="#483737" d="M-4-2h650v490H-4z"/><path d="M162.748-53.315l3.472 326.957 444.344 42.188 100.672-52.735V-56.831z" fill="#f0efd8" stroke="#000" stroke-width="1.235"/><path d="M178.37-53.315V201.57l413.101 21.094V-76.167z" fill="#aca182" stroke="#000" stroke-width="1.235"/><path d="M190.52-55.073v230.276l381.858 12.305V-93.745z" fill="#e9fcfb" stroke="#000" stroke-width="1.235"/><path d="M608.828 312.314v-414.849" fill="none" stroke="#000" stroke-width="1.235"/><path d="M494.621 300.041l39.245 4.597v-29.345l-37.83-1.415z" fill="#ccc" stroke="#000"/><path d="M38.184 489.9s9.763-31.283 24.041-36.77c17.746-6.82 41.013-9.9 65.054-5.657 24.042 4.243 258.801 52.326 311.127 36.77 52.326-15.557 32.32-57.503 26.87-62.226-21.213-18.385-134.35-31.112-118.794-65.054 15.557-33.94 115.966-21.213 145.664-35.355 29.699-14.142 31.82-28.638 31.82-28.638s1.8-11.678-8.839-12.02c-5.75-.186-9.9 8.131-9.9 8.131s-7.424 15.557-32.88 19.8c-25.456 4.242-111.723 7.07-135.764 19.798-24.042 12.728-31.113 35.355-24.042 50.912 7.071 15.556 155.292 63.911 115.966 69.296-19.115 10.833-305.47-59.397-345.068-52.326-39.598 7.071-77.782 12.728-106.066 65.054-28.285 52.326 21.213 26.87 21.213 26.87z" fill="#999" stroke="#000"/><text style="line-height:125%;-inkscape-font-specification:Time" font-size="40" font-weight="400" letter-spacing="0" word-spacing="0" fill="#aca182" font-family="Time"><textPath xlink:href="#a"><tspan style="-inkscape-font-specification:Times New Roman" font-family="Times New Roman">ENEMIGA</tspan></textPath></text><path d="M171.12 266.454l207.89 13.081" id="a" fill="none" stroke="none" stroke-width="1" stroke-linecap="butt" stroke-linejoin="miter" stroke-opacity="1"/><g font-size="40" letter-spacing="0" word-spacing="0"><text style="line-height:125%;-inkscape-font-specification:Serto Batnan Bold" x="205.938" y="674.652" font-weight="700" font-family="Serto Batnan" transform="translate(0 -572.362)"><tspan x="205.938" y="674.652" style="-inkscape-font-specification:'G.B.BOOT Bold'" font-size="144" font-family="G.B.BOOT">Coder</tspan></text><text style="line-height:125%" x="335.876" y="731.939" font-weight="400" font-family="Sans" transform="translate(0 -572.362)"><tspan x="335.876" y="731.939" style="-inkscape-font-specification:'G.B.BOOT'" font-family="G.B.BOOT">click to start</tspan></text></g></svg>